<svg width="16" height="16" viewBox="0 0 16 16" fill="none" xmlns="http://www.w3.org/2000/svg">
<g clip-path="url(#clip0_5_53)">
<path d="M4.5 9.5H7.5V8.85714H5.1V7.57143H7.2V6.92857H5.1V5.64286H7.5V5H4.5V9.5Z" fill="#CED0D6"/>
<path fill-rule="evenodd" clip-rule="evenodd" d="M9.859 7.24985C10.582 7.24985 10.7496 7.0055 10.7496 6.53675V6.524C10.7496 5.99675 10.57 5.74985 9.859 5.74985H9.25V7.24985H9.859ZM8.5 5H9.874C10.8752 5 11.5 5.59775 11.5 6.5045C11.5 7.52675 10.729 7.99985 9.78775 7.99985L9.25 7.988V9.5H8.5V5Z" fill="#CED0D6"/>
</g>
<path d="M2.5 3.29166L8 1L13.5 3.29166V8.63704C13.5 10.2085 12.7145 11.3751 11.6339 12.3435C10.8323 13.0619 9.84849 13.6843 8.90452 14.2801L8.9021 14.2816C8.59264 14.4769 8.28712 14.6698 8 14.8592C7.71296 14.6698 7.40754 14.477 7.09817 14.2818L7.09548 14.2801C6.15151 13.6843 5.16769 13.0619 4.36607 12.3435C3.28548 11.3751 2.5 10.2085 2.5 8.63704V3.29166Z" stroke="#CED0D6"/>
<defs>
<clipPath id="clip0_5_53">
<rect width="7" height="4.5" fill="white" transform="translate(4.5 5)"/>
</clipPath>
</defs>
</svg>
