<svg width="16" height="16" viewBox="0 0 16 16" fill="none" xmlns="http://www.w3.org/2000/svg">
<g clip-path="url(#clip0_1_18)">
<mask id="mask0_1_18" style="mask-type:luminance" maskUnits="userSpaceOnUse" x="0" y="0" width="16" height="16">
<path d="M16 0H0V16H16V0Z" fill="white"/>
</mask>
<g mask="url(#mask0_1_18)">
<mask id="mask1_1_18" style="mask-type:luminance" maskUnits="userSpaceOnUse" x="0" y="0" width="16" height="16">
<path d="M16 0H0V16H16V0Z" fill="white"/>
</mask>
<g mask="url(#mask1_1_18)">
<path fill-rule="evenodd" clip-rule="evenodd" d="M9 9.50215C9 8.32441 10.2951 7.60608 11.2942 8.22967L15.2962 10.7275C16.2372 11.3149 16.2372 12.6851 15.2962 13.2725L11.2942 15.7703C10.2951 16.3939 9 15.6756 9 14.4978V9.50215ZM10.7647 9.07799C10.4317 8.87013 10 9.10957 10 9.50215V14.4978C10 14.8904 10.4317 15.1298 10.7647 14.922L14.7667 12.4241C15.0804 12.2284 15.0804 11.7716 14.7667 11.5758L10.7647 9.07799Z" fill="#57965C"/>
<path d="M10 9.50214C10 9.10956 10.4317 8.87012 10.7647 9.07798L14.7667 11.5758C15.0804 11.7716 15.0804 12.2284 14.7667 12.4241L10.7647 14.922C10.4317 15.1298 10 14.8904 10 14.4978V9.50214Z" fill="#253627"/>
<path d="M14 3.00249L8 0.457031L2 3.00249V8.77794C2 10.5438 2.89245 11.8352 4.03238 12.8568C4.87083 13.6082 5.8918 14.2526 6.82862 14.8439C7.1398 15.0402 7.44176 15.2308 7.7246 15.4175L8 15.5992V14.4032C7.76892 14.2539 7.53551 14.1065 7.30253 13.9594C6.38473 13.3799 5.46989 12.8023 4.69977 12.1121C3.67898 11.1973 3 10.1554 3 8.77794V3.66451L8 1.5433L13 3.66451V8.11737L14 8.74152V3.00249Z" fill="#CED0D6"/>
</g>
</g>
<g clip-path="url(#clip1_1_18)">
<path d="M4.5 8H7.5V7.35714H5.1V6.07143H7.2V5.42857H5.1V4.14286H7.5V3.5H4.5V8Z" fill="#CED0D6"/>
<path fill-rule="evenodd" clip-rule="evenodd" d="M9.859 5.74985C10.582 5.74985 10.7496 5.5055 10.7496 5.03675V5.024C10.7496 4.49675 10.57 4.24985 9.859 4.24985H9.25V5.74985H9.859ZM8.5 3.5H9.874C10.8752 3.5 11.5 4.09775 11.5 5.0045C11.5 6.02675 10.729 6.49985 9.78775 6.49985L9.25 6.488V8H8.5V3.5Z" fill="#CED0D6"/>
</g>
</g>
<defs>
<clipPath id="clip0_1_18">
<rect width="16" height="16" fill="white"/>
</clipPath>
<clipPath id="clip1_1_18">
<rect width="7" height="4.5" fill="white" transform="translate(4.5 3.5)"/>
</clipPath>
</defs>
</svg>
