<svg width="16" height="16" viewBox="0 0 16 16" fill="none" xmlns="http://www.w3.org/2000/svg">
<path fill-rule="evenodd" clip-rule="evenodd" d="M8 3.77778V12.2215C10.0365 11.1286 11.1105 9.88561 11.2222 8.49259V4.40583L8 3.77778ZM3 3L8 2L13 3V8.7C12.8267 10.68 11.1593 12.4467 7.99783 14C4.84203 12.4491 3.17609 10.6824 3 8.7V3Z" fill="#AFB1B3"/>
<g clip-path="url(#clip0_4_47)">
<path d="M4.25 10H7.58333V9.28571H4.91667V7.85714H7.25V7.14286H4.91667V5.71429H7.58333V5H4.25V10Z" fill="#444444"/>
<path fill-rule="evenodd" clip-rule="evenodd" d="M10.0933 7.49983C10.8966 7.49983 11.0829 7.22833 11.0829 6.7075V6.69333C11.0829 6.1075 10.8833 5.83317 10.0933 5.83317H9.41665V7.49983H10.0933ZM8.58331 5H10.11C11.2225 5 11.9166 5.66417 11.9166 6.67167C11.9166 7.8075 11.06 8.33317 10.0141 8.33317L9.41665 8.32V10H8.58331V5Z" fill="#949494"/>
</g>
<defs>
<clipPath id="clip0_4_47">
<rect width="7.66667" height="5" fill="white" transform="translate(4.25 5)"/>
</clipPath>
</defs>
</svg>
